<?xml version="1.0" encoding="UTF-8"?>
<svg fill="none" version="1.1" viewBox="0 0 121 30" xmlns="http://www.w3.org/2000/svg">
<defs>
<clipPath id="a">
<rect width="121" height="30" rx="0" ry="0"/>
</clipPath>
</defs>
<g clip-path="url(#a)" fill="none">
<g>
<rect width="121" height="30" rx="0" ry="0"/>
</g>
<g>
<g x="0" y="0" width="95" height="30" rx="0" ry="0">
<g>
<path d="m1.775 25.53v-17.625h11.9v3.025h-8.025v4.3h7.475v3.025h-7.475v7.275zm13.775-14.65v-3.525h4.075v3.525zm0.15 14.65v-12.275h3.775v12.275zm11.275 0.275q-2.375 0-3.475-1.225-1.1-1.25-1.1-3.7v-12.975h3.775v12.825q0 0.625 0.2 1.1 0.2 0.45 0.575 0.675 0.4 0.225 1 0.225 0.25 0 0.525-0.025t0.525-0.1l-0.05 2.925q-0.475 0.125-0.975 0.2-0.475 0.075-1 0.075zm10 0q-2.175 0-3.75-0.775-1.55-0.8-2.4-2.225-0.825-1.45-0.825-3.4 0-1.9 0.8-3.325 0.8-1.45 2.225-2.25 1.45-0.825 3.275-0.825 1.8 0 3.1 0.775 1.3 0.75 2 2.15 0.725 1.4 0.725 3.325v0.95h-9.025v-1.95h6.3l-0.4 0.35q0-1.525-0.675-2.3-0.65-0.8-1.875-0.8-0.925 0-1.575 0.425t-1 1.225-0.35 1.925v0.2q0 1.275 0.375 2.1 0.4 0.8 1.175 1.2 0.8 0.4 1.975 0.4 1 0 2.025-0.3t1.85-0.925l1 2.525q-0.925 0.7-2.275 1.125-1.325 0.4-2.675 0.4zm7.35-0.275v-17.625h3.775v7.65h-0.35q0.575-1.225 1.7-1.875 1.15-0.675 2.6-0.675 1.475 0 2.425 0.575 0.95 0.55 1.425 1.7 0.475 1.125 0.475 2.875v7.375h-3.775v-7.2q0-0.85-0.225-1.375-0.2-0.55-0.625-0.775-0.4-0.25-1.025-0.25-0.8 0-1.4 0.35-0.575 0.325-0.9 0.95t-0.325 1.45v6.85zm20.775 0.275q-1.975 0-3.45-0.775-1.45-0.775-2.25-2.225t-0.8-3.425 0.8-3.4 2.25-2.2q1.475-0.775 3.45-0.775 1.975 0 3.425 0.775 1.475 0.775 2.275 2.225 0.825 1.425 0.825 3.375 0 1.975-0.825 3.425-0.8 1.45-2.275 2.225-1.45 0.775-3.425 0.775zm0-2.825q1.225 0 1.975-0.875 0.75-0.9 0.75-2.725t-0.75-2.675q-0.75-0.875-1.975-0.875-1.2 0-1.95 0.875-0.75 0.85-0.75 2.675t0.75 2.725q0.75 0.875 1.95 0.875zm13.525 2.825q-1.075 0-2.075-0.175t-1.825-0.475q-0.825-0.3-1.45-0.75l0.9-2.45q0.625 0.375 1.35 0.675 0.75 0.275 1.55 0.425t1.575 0.15q1.075 0 1.55-0.325 0.5-0.35 0.5-0.9 0-0.5-0.325-0.75t-0.95-0.35l-2.625-0.475q-1.55-0.275-2.4-1.125-0.825-0.875-0.825-2.225 0-1.25 0.7-2.15 0.7-0.925 1.925-1.4 1.25-0.5 2.825-0.5 0.9 0 1.75 0.15t1.6 0.45q0.775 0.3 1.375 0.8l-0.95 2.425q-0.475-0.375-1.125-0.65t-1.325-0.425q-0.675-0.175-1.275-0.175-1.125 0-1.625 0.375-0.5 0.35-0.5 0.9 0 0.425 0.275 0.725 0.3 0.275 0.9 0.375l2.625 0.475q1.625 0.275 2.475 1.1 0.85 0.8 0.85 2.2 0 1.275-0.675 2.2-0.675 0.9-1.9 1.4-1.225 0.475-2.875 0.475zm13.5 0q-2.625 0-3.9-1.275t-1.275-3.75v-4.7h-2.325v-2.825h2.325v-3.6h3.775v3.6h3.625v2.825h-3.625v4.55q0 1.05 0.475 1.575 0.5 0.525 1.575 0.525 0.325 0 0.675-0.075 0.375-0.075 0.8-0.2l0.55 2.75q-0.525 0.275-1.25 0.425-0.725 0.175-1.425 0.175z" dominant-baseline="ideographic" fill="#fff" style="white-space:pre" aria-label="Filehost"/>
</g>
</g>
<g>
<g transform="translate(0 2.2793)">
<g fill="none">
<g>
<rect x="103" y="6.5" width="18" height="17" rx="0" ry="0"/>
</g>
<g>
<g rx="0" ry="0" fill="#000">
<g display="none">
<g>
<rect x="103" y="6.5" width="18" height="17" rx="0" ry="0" fill="#fff"/>
</g>
</g>
<g rx="0" ry="0" fill="#000">
<g>
<path d="m104.57 9.89v8.053h-1.171c-0.106 0-0.208-0.044-0.283-0.122-0.075-0.077-0.117-0.182-0.117-0.292v-10.391c0-0.351 0.255-0.638 0.604-0.638h5.167c0.349 0 0.604 0.285 0.604 0.637v0.61h7.99c0.222 0 0.401 0.184 0.401 0.412v2.336h-6.821v-0.61c0-0.351-0.254-0.637-0.605-0.637h-5.165c-0.35 0-0.604 0.29-0.604 0.642z" fill="#fff" fill-rule="evenodd"/>
</g>
<g>
<path d="m120.91 22.819c0 0.228-0.179 0.412-0.402 0.412h-13.963c-0.222 0-0.401-0.184-0.401-0.412v-10.392c0-0.352 0.255-0.638 0.603-0.638h5.167c0.35 0 0.606 0.285 0.606 0.637v0.611h7.988c0.223 0 0.402 0.184 0.402 0.411z" fill="#fff" fill-rule="evenodd"/>
</g>
</g>
</g>
</g>
</g>
</g>
</g>
</g>
</g>
</svg>

